<?xml version="1.0" standalone="no"?>
<!DOCTYPE svg PUBLIC "-//W3C//DTD SVG 20010904//EN"
 "http://www.w3.org/TR/2001/REC-SVG-20010904/DTD/svg10.dtd">
<svg version="1.0" xmlns="http://www.w3.org/2000/svg"
 width="512.000000pt" height="512.000000pt" viewBox="0 0 512.000000 512.000000"
 preserveAspectRatio="xMidYMid meet">

<g transform="translate(0.000000,512.000000) scale(0.100000,-0.100000)"
fill="#000000" stroke="none">
<path d="M2450 4794 c-180 -35 -318 -110 -438 -239 -147 -157 -218 -373 -193
-585 47 -379 360 -660 738 -660 123 0 217 22 328 75 199 97 335 262 397 482
29 106 29 266 -1 376 -68 257 -270 458 -536 534 -51 14 -250 26 -295 17z m275
-235 c109 -33 226 -125 289 -226 14 -24 38 -78 52 -120 23 -69 26 -90 22 -178
-5 -111 -27 -185 -78 -266 -210 -327 -679 -329 -896 -4 -54 81 -77 156 -82
270 -4 88 -1 109 22 178 43 129 109 215 219 288 132 86 294 107 452 58z"/>
<path d="M2513 2654 c-66 -33 -63 17 -63 -1025 l0 -944 -343 343 c-238 238
-351 344 -372 350 -42 11 -69 5 -99 -23 -30 -27 -41 -64 -32 -102 10 -39 890
-919 929 -929 15 -3 39 -3 55 1 30 7 893 860 918 907 19 37 18 67 -5 104 -24
40 -76 59 -117 44 -16 -6 -181 -163 -371 -353 l-343 -342 0 944 c0 1045 3 993
-65 1025 -41 20 -52 20 -92 0z"/>
</g>
</svg>
